<svg xmlns="http://www.w3.org/2000/svg" xmlns:xlink="http://www.w3.org/1999/xlink" width="1000" zoomAndPan="magnify" viewBox="0 0 750 225" height="300" preserveAspectRatio="xMidYMid meet" version="1.0"><defs><filter x="0%" y="0%" width="100%" height="100%" id="5bd6930115"><feColorMatrix values="0 0 0 0 1 0 0 0 0 1 0 0 0 0 1 0 0 0 1 0" color-interpolation-filters="sRGB"/></filter><g/><mask id="536ba0b78b"><g filter="url(#5bd6930115)"><rect x="-75" width="900" fill="#000000" y="-22.5" height="270" fill-opacity="0.46"/></g></mask><clipPath id="49f3c8f174"><path d="M 1.066406 0.777344 L 36.765625 0.777344 L 36.765625 97.546875 L 1.066406 97.546875 Z M 1.066406 0.777344 " clip-rule="nonzero"/></clipPath><clipPath id="9e5f46bd1b"><path d="M 18.917969 0.777344 C 23.648438 0.777344 28.1875 2.660156 31.535156 6.007812 C 34.882812 9.351562 36.765625 13.894531 36.765625 18.625 L 36.765625 79.601562 C 36.765625 84.335938 34.882812 88.875 31.535156 92.222656 C 28.1875 95.570312 23.648438 97.449219 18.917969 97.449219 C 14.183594 97.449219 9.644531 95.570312 6.296875 92.222656 C 2.949219 88.875 1.066406 84.335938 1.066406 79.601562 L 1.066406 18.625 C 1.066406 13.894531 2.949219 9.351562 6.296875 6.007812 C 9.644531 2.660156 14.183594 0.777344 18.917969 0.777344 Z M 18.917969 0.777344 " clip-rule="nonzero"/></clipPath><clipPath id="182bbb61ea"><path d="M 0.0664062 0.777344 L 35.765625 0.777344 L 35.765625 97.519531 L 0.0664062 97.519531 Z M 0.0664062 0.777344 " clip-rule="nonzero"/></clipPath><clipPath id="1a4dce7a5d"><path d="M 17.917969 0.777344 C 22.648438 0.777344 27.1875 2.660156 30.535156 6.007812 C 33.882812 9.351562 35.765625 13.894531 35.765625 18.625 L 35.765625 79.601562 C 35.765625 84.335938 33.882812 88.875 30.535156 92.222656 C 27.1875 95.570312 22.648438 97.449219 17.917969 97.449219 C 13.183594 97.449219 8.644531 95.570312 5.296875 92.222656 C 1.949219 88.875 0.0664062 84.335938 0.0664062 79.601562 L 0.0664062 18.625 C 0.0664062 13.894531 1.949219 9.351562 5.296875 6.007812 C 8.644531 2.660156 13.183594 0.777344 17.917969 0.777344 Z M 17.917969 0.777344 " clip-rule="nonzero"/></clipPath><clipPath id="928174158e"><rect x="0" width="36" y="0" height="98"/></clipPath><clipPath id="870e70870f"><rect x="0" width="37" y="0" height="98"/></clipPath><mask id="02d8705951"><g filter="url(#5bd6930115)"><rect x="-75" width="900" fill="#000000" y="-22.5" height="270" fill-opacity="0.46"/></g></mask><clipPath id="0cf3f67fdd"><path d="M 0.0820312 0.199219 L 35.777344 0.199219 L 35.777344 95.570312 L 0.0820312 95.570312 Z M 0.0820312 0.199219 " clip-rule="nonzero"/></clipPath><clipPath id="09442013f9"><path d="M 17.929688 0.199219 C 22.664062 0.199219 27.203125 2.078125 30.550781 5.425781 C 33.898438 8.773438 35.777344 13.3125 35.777344 18.046875 L 35.777344 77.601562 C 35.777344 82.335938 33.898438 86.875 30.550781 90.222656 C 27.203125 93.570312 22.664062 95.449219 17.929688 95.449219 C 13.195312 95.449219 8.65625 93.570312 5.308594 90.222656 C 1.960938 86.875 0.0820312 82.335938 0.0820312 77.601562 L 0.0820312 18.046875 C 0.0820312 13.3125 1.960938 8.773438 5.308594 5.425781 C 8.65625 2.078125 13.195312 0.199219 17.929688 0.199219 Z M 17.929688 0.199219 " clip-rule="nonzero"/></clipPath><clipPath id="82da9c8736"><path d="M 0.0820312 0.199219 L 35.777344 0.199219 L 35.777344 95.519531 L 0.0820312 95.519531 Z M 0.0820312 0.199219 " clip-rule="nonzero"/></clipPath><clipPath id="b1c1dba5bb"><path d="M 17.929688 0.199219 C 22.664062 0.199219 27.203125 2.078125 30.550781 5.425781 C 33.898438 8.773438 35.777344 13.3125 35.777344 18.046875 L 35.777344 77.601562 C 35.777344 82.335938 33.898438 86.875 30.550781 90.222656 C 27.203125 93.570312 22.664062 95.449219 17.929688 95.449219 C 13.195312 95.449219 8.65625 93.570312 5.308594 90.222656 C 1.960938 86.875 0.0820312 82.335938 0.0820312 77.601562 L 0.0820312 18.046875 C 0.0820312 13.3125 1.960938 8.773438 5.308594 5.425781 C 8.65625 2.078125 13.195312 0.199219 17.929688 0.199219 Z M 17.929688 0.199219 " clip-rule="nonzero"/></clipPath><clipPath id="965f8b1ce5"><rect x="0" width="36" y="0" height="96"/></clipPath><clipPath id="a44d8505ed"><rect x="0" width="36" y="0" height="96"/></clipPath><clipPath id="5ae4cf040e"><path d="M 159 60 L 257 60 L 257 158 L 159 158 Z M 159 60 " clip-rule="nonzero"/></clipPath><clipPath id="e9edec65d3"><path d="M 239.136719 52.609375 L 264.375 77.851562 L 177.316406 164.910156 L 152.074219 139.671875 Z M 239.136719 52.609375 " clip-rule="nonzero"/></clipPath><clipPath id="8a215396e0"><path d="M 251.757812 65.230469 C 255.101562 68.578125 256.984375 73.117188 256.984375 77.851562 C 256.984375 82.585938 255.101562 87.125 251.757812 90.472656 L 189.996094 152.230469 C 186.652344 155.578125 182.109375 157.457031 177.378906 157.457031 C 172.644531 157.457031 168.105469 155.578125 164.757812 152.230469 C 161.410156 148.882812 159.53125 144.34375 159.53125 139.609375 C 159.53125 134.875 161.410156 130.335938 164.757812 126.988281 L 226.515625 65.230469 C 229.863281 61.882812 234.402344 60.003906 239.136719 60.003906 C 243.871094 60.003906 248.410156 61.882812 251.757812 65.230469 Z M 251.757812 65.230469 " clip-rule="nonzero"/></clipPath><clipPath id="b4c2137d81"><path d="M 0.359375 0 L 98 0 L 98 97.679688 L 0.359375 97.679688 Z M 0.359375 0 " clip-rule="nonzero"/></clipPath><clipPath id="1169a4ac07"><path d="M 80.136719 -7.390625 L 105.375 17.851562 L 18.316406 104.910156 L -6.925781 79.671875 Z M 80.136719 -7.390625 " clip-rule="nonzero"/></clipPath><clipPath id="340c9f803a"><path d="M 92.757812 5.230469 C 96.101562 8.578125 97.984375 13.117188 97.984375 17.851562 C 97.984375 22.585938 96.101562 27.125 92.757812 30.472656 L 30.996094 92.230469 C 27.652344 95.578125 23.109375 97.457031 18.378906 97.457031 C 13.644531 97.457031 9.105469 95.578125 5.757812 92.230469 C 2.410156 88.882812 0.53125 84.34375 0.53125 79.609375 C 0.53125 74.875 2.410156 70.335938 5.757812 66.988281 L 67.515625 5.230469 C 70.863281 1.882812 75.402344 0.00390625 80.136719 0.00390625 C 84.871094 0.00390625 89.410156 1.882812 92.757812 5.230469 Z M 92.757812 5.230469 " clip-rule="nonzero"/></clipPath><clipPath id="0d5ef162ac"><rect x="0" width="98" y="0" height="98"/></clipPath><clipPath id="35ed28aa97"><path d="M 221 121 L 257 121 L 257 158 L 221 158 Z M 221 121 " clip-rule="nonzero"/></clipPath><clipPath id="0e8e7d098e"><path d="M 239.136719 114.359375 L 264.375 139.597656 L 239.035156 164.9375 L 213.796875 139.695312 Z M 239.136719 114.359375 " clip-rule="nonzero"/></clipPath><clipPath id="e9edcea677"><path d="M 251.753906 126.976562 C 255.101562 130.324219 256.984375 134.863281 256.984375 139.597656 C 256.984375 144.332031 255.101562 148.871094 251.753906 152.21875 L 251.746094 152.230469 C 248.398438 155.578125 243.859375 157.457031 239.125 157.457031 C 234.390625 157.457031 229.851562 155.578125 226.503906 152.230469 C 223.15625 148.882812 221.277344 144.34375 221.277344 139.609375 C 221.277344 134.875 223.15625 130.335938 226.503906 126.988281 L 226.515625 126.976562 C 229.863281 123.632812 234.402344 121.75 239.136719 121.75 C 243.867188 121.75 248.40625 123.632812 251.753906 126.976562 Z M 251.753906 126.976562 " clip-rule="nonzero"/></clipPath><clipPath id="b26e8e80ce"><path d="M 0.0390625 0.679688 L 36 0.679688 L 36 36.679688 L 0.0390625 36.679688 Z M 0.0390625 0.679688 " clip-rule="nonzero"/></clipPath><clipPath id="e98c7f6d74"><path d="M 18.136719 -6.640625 L 43.375 18.597656 L 18.035156 43.9375 L -7.203125 18.695312 Z M 18.136719 -6.640625 " clip-rule="nonzero"/></clipPath><clipPath id="0d539d2fcd"><path d="M 30.753906 5.976562 C 34.101562 9.324219 35.984375 13.863281 35.984375 18.597656 C 35.984375 23.332031 34.101562 27.871094 30.753906 31.21875 L 30.746094 31.230469 C 27.398438 34.578125 22.859375 36.457031 18.125 36.457031 C 13.390625 36.457031 8.851562 34.578125 5.503906 31.230469 C 2.15625 27.882812 0.277344 23.34375 0.277344 18.609375 C 0.277344 13.875 2.15625 9.335938 5.503906 5.988281 L 5.515625 5.976562 C 8.863281 2.632812 13.402344 0.75 18.136719 0.75 C 22.867188 0.75 27.40625 2.632812 30.753906 5.976562 Z M 30.753906 5.976562 " clip-rule="nonzero"/></clipPath><clipPath id="fc769bb5fe"><rect x="0" width="36" y="0" height="37"/></clipPath><clipPath id="61e594a982"><path d="M 94 57 L 195 57 L 195 158 L 94 158 Z M 94 57 " clip-rule="nonzero"/></clipPath><clipPath id="c88918f53d"><path d="M 176.914062 50.242188 L 202.152344 75.484375 L 112.726562 164.910156 L 87.488281 139.671875 Z M 176.914062 50.242188 " clip-rule="nonzero"/></clipPath><clipPath id="fb1cca0ed1"><path d="M 189.53125 62.863281 C 192.878906 66.210938 194.761719 70.75 194.761719 75.484375 C 194.761719 80.21875 192.878906 84.757812 189.53125 88.105469 L 125.410156 152.230469 C 122.0625 155.578125 117.523438 157.457031 112.789062 157.457031 C 108.054688 157.457031 103.515625 155.578125 100.167969 152.230469 C 96.820312 148.882812 94.941406 144.34375 94.941406 139.609375 C 94.941406 134.875 96.820312 130.335938 100.167969 126.988281 L 164.292969 62.863281 C 167.640625 59.515625 172.179688 57.636719 176.914062 57.636719 C 181.644531 57.636719 186.1875 59.515625 189.53125 62.863281 Z M 189.53125 62.863281 " clip-rule="nonzero"/></clipPath><clipPath id="020b896b15"><path d="M 0.800781 0.601562 L 100.878906 0.601562 L 100.878906 100.679688 L 0.800781 100.679688 Z M 0.800781 0.601562 " clip-rule="nonzero"/></clipPath><clipPath id="ff04603042"><path d="M 82.914062 -6.757812 L 108.152344 18.484375 L 18.726562 107.910156 L -6.511719 82.671875 Z M 82.914062 -6.757812 " clip-rule="nonzero"/></clipPath><clipPath id="bfabf55afb"><path d="M 95.53125 5.863281 C 98.878906 9.210938 100.761719 13.75 100.761719 18.484375 C 100.761719 23.21875 98.878906 27.757812 95.53125 31.105469 L 31.410156 95.230469 C 28.0625 98.578125 23.523438 100.457031 18.789062 100.457031 C 14.054688 100.457031 9.515625 98.578125 6.167969 95.230469 C 2.820312 91.882812 0.941406 87.34375 0.941406 82.609375 C 0.941406 77.875 2.820312 73.335938 6.167969 69.988281 L 70.292969 5.863281 C 73.640625 2.515625 78.179688 0.636719 82.914062 0.636719 C 87.644531 0.636719 92.1875 2.515625 95.53125 5.863281 Z M 95.53125 5.863281 " clip-rule="nonzero"/></clipPath><clipPath id="6fcc8914db"><rect x="0" width="101" y="0" height="101"/></clipPath><clipPath id="381588908d"><rect x="0" width="380" y="0" height="93"/></clipPath></defs><g mask="url(#536ba0b78b)"><g transform="matrix(1, 0, 0, 1, 158, 58)"><g clip-path="url(#870e70870f)"><g clip-path="url(#49f3c8f174)"><g clip-path="url(#9e5f46bd1b)"><g transform="matrix(1, 0, 0, 1, 1, -0.000000000000007105)"><g clip-path="url(#928174158e)"><g clip-path="url(#182bbb61ea)"><g clip-path="url(#1a4dce7a5d)"><path fill="#f49f0b" d="M 0.0664062 0.777344 L 35.765625 0.777344 L 35.765625 97.40625 L 0.0664062 97.40625 Z M 0.0664062 0.777344 " fill-opacity="1" fill-rule="nonzero"/></g></g></g></g></g></g></g></g></g><g mask="url(#02d8705951)"><g transform="matrix(1, 0, 0, 1, 221, 60)"><g clip-path="url(#a44d8505ed)"><g clip-path="url(#0cf3f67fdd)"><g clip-path="url(#09442013f9)"><g transform="matrix(1, 0, 0, 1, 0, -0.000000000000007105)"><g clip-path="url(#965f8b1ce5)"><g clip-path="url(#82da9c8736)"><g clip-path="url(#b1c1dba5bb)"><path fill="#f49f0b" d="M 0.0820312 0.199219 L 35.777344 0.199219 L 35.777344 95.433594 L 0.0820312 95.433594 Z M 0.0820312 0.199219 " fill-opacity="1" fill-rule="nonzero"/></g></g></g></g></g></g></g></g></g><g clip-path="url(#5ae4cf040e)"><g clip-path="url(#e9edec65d3)"><g clip-path="url(#8a215396e0)"><g transform="matrix(1, 0, 0, 1, 159, 60)"><g clip-path="url(#0d5ef162ac)"><g clip-path="url(#b4c2137d81)"><g clip-path="url(#1169a4ac07)"><g clip-path="url(#340c9f803a)"><path fill="#f49f0b" d="M 80.136719 -7.390625 L 105.375 17.851562 L 18.414062 104.8125 L -6.824219 79.570312 Z M 80.136719 -7.390625 " fill-opacity="1" fill-rule="nonzero"/></g></g></g></g></g></g></g></g><g clip-path="url(#35ed28aa97)"><g clip-path="url(#0e8e7d098e)"><g clip-path="url(#e9edcea677)"><g transform="matrix(1, 0, 0, 1, 221, 121)"><g clip-path="url(#fc769bb5fe)"><g clip-path="url(#b26e8e80ce)"><g clip-path="url(#e98c7f6d74)"><g clip-path="url(#0d539d2fcd)"><path fill="#f49f0b" d="M 18.136719 -6.640625 L 43.375 18.597656 L 18.136719 43.839844 L -7.105469 18.597656 Z M 18.136719 -6.640625 " fill-opacity="1" fill-rule="nonzero"/></g></g></g></g></g></g></g></g><g clip-path="url(#61e594a982)"><g clip-path="url(#c88918f53d)"><g clip-path="url(#fb1cca0ed1)"><g transform="matrix(1, 0, 0, 1, 94, 57)"><g clip-path="url(#6fcc8914db)"><g clip-path="url(#020b896b15)"><g clip-path="url(#ff04603042)"><g clip-path="url(#bfabf55afb)"><path fill="#f49f0b" d="M 82.914062 -6.757812 L 108.152344 18.484375 L 18.824219 107.8125 L -6.414062 82.570312 Z M 82.914062 -6.757812 " fill-opacity="1" fill-rule="nonzero"/></g></g></g></g></g></g></g></g><g transform="matrix(1, 0, 0, 1, 283, 72)"><g clip-path="url(#381588908d)"><g fill="#ffffff" fill-opacity="1"><g transform="translate(0.67826, 71.558962)"><g><path d="M 19.28125 -27.1875 L 19.28125 0 L 2.671875 0 L 2.671875 -52.625 L 19.28125 -52.625 L 19.28125 -36.515625 C 20.320312 -42.273438 22.359375 -46.640625 25.390625 -49.609375 C 28.429688 -52.578125 32.382812 -54.0625 37.25 -54.0625 C 42.769531 -54.0625 46.921875 -52.140625 49.703125 -48.296875 C 52.492188 -44.453125 53.890625 -38.734375 53.890625 -31.140625 L 53.890625 0 L 37.28125 0 L 37.28125 -27.5625 C 37.28125 -31.664062 36.570312 -34.722656 35.15625 -36.734375 C 33.738281 -38.753906 31.582031 -39.765625 28.6875 -39.765625 C 25.664062 -39.765625 23.34375 -38.695312 21.71875 -36.5625 C 20.09375 -34.425781 19.28125 -31.300781 19.28125 -27.1875 Z M 19.28125 -27.1875 "/></g></g></g><g fill="#ffffff" fill-opacity="1"><g transform="translate(57.007645, 71.558962)"><g><path d="M 39.078125 -18.015625 L 54.390625 -18.015625 C 53.660156 -14.992188 52.515625 -12.285156 50.953125 -9.890625 C 49.398438 -7.492188 47.5 -5.453125 45.25 -3.765625 C 43.007812 -2.078125 40.484375 -0.789062 37.671875 0.09375 C 34.867188 0.988281 31.832031 1.4375 28.5625 1.4375 C 25.351562 1.4375 22.367188 1.003906 19.609375 0.140625 C 16.847656 -0.710938 14.359375 -1.945312 12.140625 -3.5625 C 9.929688 -5.175781 8.039062 -7.125 6.46875 -9.40625 C 4.90625 -11.695312 3.707031 -14.265625 2.875 -17.109375 C 2.039062 -19.960938 1.625 -23.039062 1.625 -26.34375 C 1.625 -29.65625 2.035156 -32.726562 2.859375 -35.5625 C 3.691406 -38.40625 4.882812 -40.960938 6.4375 -43.234375 C 7.988281 -45.515625 9.859375 -47.457031 12.046875 -49.0625 C 14.234375 -50.675781 16.691406 -51.910156 19.421875 -52.765625 C 22.148438 -53.628906 25.101562 -54.0625 28.28125 -54.0625 C 31.445312 -54.0625 34.378906 -53.632812 37.078125 -52.78125 C 39.785156 -51.925781 42.222656 -50.695312 44.390625 -49.09375 C 46.554688 -47.5 48.398438 -45.570312 49.921875 -43.3125 C 51.441406 -41.0625 52.601562 -38.507812 53.40625 -35.65625 C 54.21875 -32.8125 54.625 -29.722656 54.625 -26.390625 C 54.625 -25.078125 54.554688 -23.757812 54.421875 -22.4375 L 17.40625 -22.4375 C 17.675781 -20.113281 18.3125 -18.125 19.3125 -16.46875 C 20.3125 -14.8125 21.632812 -13.546875 23.28125 -12.671875 C 24.925781 -11.796875 26.847656 -11.359375 29.046875 -11.359375 C 33.867188 -11.359375 37.210938 -13.578125 39.078125 -18.015625 Z M 17.515625 -31.5 L 39.015625 -31.5 C 37.867188 -38.195312 34.320312 -41.546875 28.375 -41.546875 C 25.351562 -41.546875 22.914062 -40.679688 21.0625 -38.953125 C 19.207031 -37.234375 18.023438 -34.75 17.515625 -31.5 Z M 17.515625 -31.5 "/></g></g></g><g fill="#ffffff" fill-opacity="1"><g transform="translate(113.241559, 71.558962)"><g><path d="M 39.375 -52.625 L 56 -52.625 L 56 -5.828125 C 56 -1.910156 55.390625 1.609375 54.171875 4.734375 C 52.953125 7.859375 51.1875 10.519531 48.875 12.71875 C 46.570312 14.925781 43.78125 16.609375 40.5 17.765625 C 37.21875 18.929688 33.519531 19.515625 29.40625 19.515625 C 26.25 19.515625 23.316406 19.1875 20.609375 18.53125 C 17.910156 17.875 15.488281 16.921875 13.34375 15.671875 C 11.195312 14.421875 9.359375 12.910156 7.828125 11.140625 C 6.296875 9.378906 5.128906 7.390625 4.328125 5.171875 C 3.523438 2.960938 3.125 0.570312 3.125 -2 L 19.671875 -2 C 19.671875 -0.144531 20.054688 1.457031 20.828125 2.8125 C 21.609375 4.164062 22.707031 5.207031 24.125 5.9375 C 25.539062 6.675781 27.195312 7.046875 29.09375 7.046875 C 31.269531 7.046875 33.125 6.539062 34.65625 5.53125 C 36.1875 4.53125 37.351562 3.078125 38.15625 1.171875 C 38.96875 -0.722656 39.375 -3.015625 39.375 -5.703125 L 39.375 -19.171875 C 38.3125 -13.984375 36.335938 -10.007812 33.453125 -7.25 C 30.578125 -4.488281 26.910156 -3.109375 22.453125 -3.109375 C 20.023438 -3.109375 17.753906 -3.507812 15.640625 -4.3125 C 13.535156 -5.113281 11.632812 -6.269531 9.9375 -7.78125 C 8.25 -9.289062 6.796875 -11.109375 5.578125 -13.234375 C 4.367188 -15.359375 3.4375 -17.738281 2.78125 -20.375 C 2.132812 -23.007812 1.8125 -25.84375 1.8125 -28.875 C 1.8125 -31.9375 2.132812 -34.765625 2.78125 -37.359375 C 3.425781 -39.953125 4.359375 -42.273438 5.578125 -44.328125 C 6.796875 -46.390625 8.25 -48.144531 9.9375 -49.59375 C 11.632812 -51.039062 13.535156 -52.144531 15.640625 -52.90625 C 17.753906 -53.675781 20.023438 -54.0625 22.453125 -54.0625 C 26.910156 -54.0625 30.578125 -52.75 33.453125 -50.125 C 36.335938 -47.507812 38.3125 -43.648438 39.375 -38.546875 Z M 39.375 -28.875 C 39.375 -32.601562 38.472656 -35.363281 36.671875 -37.15625 C 34.867188 -38.957031 32.25 -39.859375 28.8125 -39.859375 C 25.445312 -39.859375 22.894531 -38.984375 21.15625 -37.234375 C 19.425781 -35.484375 18.5625 -32.695312 18.5625 -28.875 C 18.5625 -25.0625 19.425781 -22.179688 21.15625 -20.234375 C 22.894531 -18.296875 25.445312 -17.328125 28.8125 -17.328125 C 32.226562 -17.328125 34.84375 -18.320312 36.65625 -20.3125 C 38.46875 -22.300781 39.375 -25.15625 39.375 -28.875 Z M 39.375 -28.875 "/></g></g></g><g fill="#ffffff" fill-opacity="1"><g transform="translate(171.910065, 71.558962)"><g><path d="M 1.625 -26.328125 C 1.625 -29.703125 2.050781 -32.820312 2.90625 -35.6875 C 3.769531 -38.550781 5.003906 -41.113281 6.609375 -43.375 C 8.210938 -45.644531 10.132812 -47.570312 12.375 -49.15625 C 14.613281 -50.75 17.113281 -51.960938 19.875 -52.796875 C 22.644531 -53.640625 25.613281 -54.0625 28.78125 -54.0625 C 31.96875 -54.0625 34.941406 -53.640625 37.703125 -52.796875 C 40.472656 -51.960938 42.972656 -50.75 45.203125 -49.15625 C 47.441406 -47.570312 49.359375 -45.644531 50.953125 -43.375 C 52.554688 -41.113281 53.785156 -38.550781 54.640625 -35.6875 C 55.503906 -32.820312 55.9375 -29.703125 55.9375 -26.328125 C 55.9375 -22.953125 55.503906 -19.832031 54.640625 -16.96875 C 53.785156 -14.101562 52.554688 -11.535156 50.953125 -9.265625 C 49.359375 -7.003906 47.441406 -5.078125 45.203125 -3.484375 C 42.972656 -1.890625 40.472656 -0.671875 37.703125 0.171875 C 34.941406 1.015625 31.96875 1.4375 28.78125 1.4375 C 25.613281 1.4375 22.644531 1.015625 19.875 0.171875 C 17.113281 -0.671875 14.613281 -1.890625 12.375 -3.484375 C 10.132812 -5.078125 8.210938 -7.003906 6.609375 -9.265625 C 5.003906 -11.535156 3.769531 -14.101562 2.90625 -16.96875 C 2.050781 -19.832031 1.625 -22.953125 1.625 -26.328125 Z M 18.375 -26.328125 C 18.375 -21.960938 19.28125 -18.625 21.09375 -16.3125 C 22.90625 -14.007812 25.476562 -12.859375 28.8125 -12.859375 C 32.132812 -12.859375 34.691406 -14.007812 36.484375 -16.3125 C 38.285156 -18.625 39.1875 -21.960938 39.1875 -26.328125 C 39.1875 -30.703125 38.285156 -34.035156 36.484375 -36.328125 C 34.691406 -38.617188 32.132812 -39.765625 28.8125 -39.765625 C 25.476562 -39.765625 22.90625 -38.617188 21.09375 -36.328125 C 19.28125 -34.035156 18.375 -30.703125 18.375 -26.328125 Z M 18.375 -26.328125 "/></g></g></g><g fill="#ffffff" fill-opacity="1"><g transform="translate(229.480588, 71.558962)"><g><path d="M 18.375 -26.328125 C 18.375 -21.960938 19.28125 -18.625 21.09375 -16.3125 C 22.90625 -14.007812 25.46875 -12.859375 28.78125 -12.859375 C 30.59375 -12.859375 32.117188 -13.203125 33.359375 -13.890625 C 34.609375 -14.585938 35.609375 -15.566406 36.359375 -16.828125 C 37.117188 -18.085938 37.65625 -19.566406 37.96875 -21.265625 L 54.515625 -21.265625 C 54.085938 -17.878906 53.164062 -14.796875 51.75 -12.015625 C 50.34375 -9.242188 48.515625 -6.847656 46.265625 -4.828125 C 44.023438 -2.816406 41.429688 -1.269531 38.484375 -0.1875 C 35.535156 0.894531 32.300781 1.4375 28.78125 1.4375 C 25.613281 1.4375 22.644531 1.015625 19.875 0.171875 C 17.113281 -0.671875 14.613281 -1.890625 12.375 -3.484375 C 10.132812 -5.078125 8.210938 -7.003906 6.609375 -9.265625 C 5.003906 -11.535156 3.769531 -14.101562 2.90625 -16.96875 C 2.050781 -19.832031 1.625 -22.953125 1.625 -26.328125 C 1.625 -29.703125 2.050781 -32.820312 2.90625 -35.6875 C 3.769531 -38.550781 5.003906 -41.113281 6.609375 -43.375 C 8.210938 -45.644531 10.132812 -47.570312 12.375 -49.15625 C 14.613281 -50.75 17.113281 -51.960938 19.875 -52.796875 C 22.644531 -53.640625 25.613281 -54.0625 28.78125 -54.0625 C 32.300781 -54.0625 35.535156 -53.519531 38.484375 -52.4375 C 41.429688 -51.351562 44.03125 -49.804688 46.28125 -47.796875 C 48.539062 -45.796875 50.375 -43.398438 51.78125 -40.609375 C 53.1875 -37.828125 54.097656 -34.742188 54.515625 -31.359375 L 37.96875 -31.359375 C 37.65625 -33.066406 37.117188 -34.546875 36.359375 -35.796875 C 35.609375 -37.054688 34.609375 -38.03125 33.359375 -38.71875 C 32.117188 -39.414062 30.59375 -39.765625 28.78125 -39.765625 C 25.46875 -39.765625 22.90625 -38.617188 21.09375 -36.328125 C 19.28125 -34.035156 18.375 -30.703125 18.375 -26.328125 Z M 18.375 -26.328125 "/></g></g></g><g fill="#ffffff" fill-opacity="1"><g transform="translate(285.619048, 71.558962)"><g><path d="M 20.53125 -68.265625 L 20.53125 0 L 2.90625 0 L 2.90625 -68.265625 Z M 20.53125 -68.265625 "/></g></g></g><g fill="#ffffff" fill-opacity="1"><g transform="translate(309.057814, 71.558962)"><g><path d="M 18.09375 0 L -0.3125 0 L 22.265625 -68.265625 L 46.46875 -68.265625 L 68.71875 0 L 49.9375 0 L 46.109375 -13.96875 L 21.984375 -13.96875 Z M 25.84375 -27.90625 L 42.3125 -27.90625 L 34.15625 -57.765625 Z M 25.84375 -27.90625 "/></g></g></g></g></g></svg>