<svg xmlns="http://www.w3.org/2000/svg" xmlns:xlink="http://www.w3.org/1999/xlink" width="50" zoomAndPan="magnify" viewBox="0 0 37.5 37.499999" height="50" preserveAspectRatio="xMidYMid meet" version="1.0"><defs><filter x="0%" y="0%" width="100%" height="100%" id="ea17c82452"><feColorMatrix values="0 0 0 0 1 0 0 0 0 1 0 0 0 0 1 0 0 0 1 0" color-interpolation-filters="sRGB"/></filter><mask id="8499c6a26c"><g filter="url(#ea17c82452)"><rect x="-3.75" width="45" fill="#000000" y="-3.75" height="44.999999" fill-opacity="0.46"/></g></mask><clipPath id="62821aca45"><path d="M 0.96875 0.296875 L 8.4375 0.296875 L 8.4375 20.546875 L 0.96875 20.546875 Z M 0.96875 0.296875 " clip-rule="nonzero"/></clipPath><clipPath id="852e390db5"><path d="M 4.667969 0.296875 L 4.738281 0.296875 C 5.71875 0.296875 6.660156 0.6875 7.355469 1.378906 C 8.046875 2.074219 8.4375 3.015625 8.4375 3.996094 L 8.4375 16.828125 C 8.4375 17.808594 8.046875 18.75 7.355469 19.445312 C 6.660156 20.136719 5.71875 20.527344 4.738281 20.527344 L 4.667969 20.527344 C 3.6875 20.527344 2.746094 20.136719 2.050781 19.445312 C 1.355469 18.75 0.96875 17.808594 0.96875 16.828125 L 0.96875 3.996094 C 0.96875 3.015625 1.355469 2.074219 2.050781 1.378906 C 2.746094 0.6875 3.6875 0.296875 4.667969 0.296875 Z M 4.667969 0.296875 " clip-rule="nonzero"/></clipPath><clipPath id="6918bcf345"><path d="M 0.96875 0.296875 L 8.4375 0.296875 L 8.4375 20.546875 L 0.96875 20.546875 Z M 0.96875 0.296875 " clip-rule="nonzero"/></clipPath><clipPath id="3a2035f55d"><path d="M 4.667969 0.296875 L 4.738281 0.296875 C 5.71875 0.296875 6.660156 0.6875 7.355469 1.378906 C 8.046875 2.074219 8.4375 3.015625 8.4375 3.996094 L 8.4375 16.828125 C 8.4375 17.808594 8.046875 18.75 7.355469 19.445312 C 6.660156 20.136719 5.71875 20.527344 4.738281 20.527344 L 4.667969 20.527344 C 3.6875 20.527344 2.746094 20.136719 2.050781 19.445312 C 1.355469 18.75 0.96875 17.808594 0.96875 16.828125 L 0.96875 3.996094 C 0.96875 3.015625 1.355469 2.074219 2.050781 1.378906 C 2.746094 0.6875 3.6875 0.296875 4.667969 0.296875 Z M 4.667969 0.296875 " clip-rule="nonzero"/></clipPath><clipPath id="fd6d8ad8be"><rect x="0" width="9" y="0" height="21"/></clipPath><clipPath id="e2771cf2f2"><rect x="0" width="9" y="0" height="21"/></clipPath><mask id="8d5a426b14"><g filter="url(#ea17c82452)"><rect x="-3.75" width="45" fill="#000000" y="-3.75" height="44.999999" fill-opacity="0.46"/></g></mask><clipPath id="8b221a94b0"><path d="M 0.945312 0.59375 L 8.417969 0.59375 L 8.417969 20.554688 L 0.945312 20.554688 Z M 0.945312 0.59375 " clip-rule="nonzero"/></clipPath><clipPath id="6b3443656d"><path d="M 4.644531 0.59375 L 4.714844 0.59375 C 5.695312 0.59375 6.636719 0.984375 7.332031 1.679688 C 8.027344 2.371094 8.417969 3.3125 8.417969 4.292969 L 8.417969 16.828125 C 8.417969 17.808594 8.027344 18.75 7.332031 19.445312 C 6.636719 20.136719 5.695312 20.527344 4.714844 20.527344 L 4.644531 20.527344 C 3.664062 20.527344 2.722656 20.136719 2.03125 19.445312 C 1.335938 18.75 0.945312 17.808594 0.945312 16.828125 L 0.945312 4.292969 C 0.945312 3.3125 1.335938 2.371094 2.03125 1.679688 C 2.722656 0.984375 3.664062 0.59375 4.644531 0.59375 Z M 4.644531 0.59375 " clip-rule="nonzero"/></clipPath><clipPath id="af4d07fc98"><path d="M 0.945312 0.59375 L 8.417969 0.59375 L 8.417969 20.554688 L 0.945312 20.554688 Z M 0.945312 0.59375 " clip-rule="nonzero"/></clipPath><clipPath id="3dd3f49e12"><path d="M 4.644531 0.59375 L 4.714844 0.59375 C 5.695312 0.59375 6.636719 0.984375 7.332031 1.679688 C 8.027344 2.371094 8.417969 3.3125 8.417969 4.292969 L 8.417969 16.828125 C 8.417969 17.808594 8.027344 18.75 7.332031 19.445312 C 6.636719 20.136719 5.695312 20.527344 4.714844 20.527344 L 4.644531 20.527344 C 3.664062 20.527344 2.722656 20.136719 2.03125 19.445312 C 1.335938 18.75 0.945312 17.808594 0.945312 16.828125 L 0.945312 4.292969 C 0.945312 3.3125 1.335938 2.371094 2.03125 1.679688 C 2.722656 0.984375 3.664062 0.59375 4.644531 0.59375 Z M 4.644531 0.59375 " clip-rule="nonzero"/></clipPath><clipPath id="4b59764d35"><rect x="0" width="9" y="0" height="21"/></clipPath><clipPath id="1699ff462d"><rect x="0" width="9" y="0" height="21"/></clipPath><clipPath id="b4b575b467"><path d="M 15 8 L 36 8 L 36 29 L 15 29 Z M 15 8 " clip-rule="nonzero"/></clipPath><clipPath id="0348579eb8"><path d="M 31.71875 7.007812 L 37.003906 12.292969 L 18.78125 30.511719 L 13.5 25.230469 Z M 31.71875 7.007812 " clip-rule="nonzero"/></clipPath><clipPath id="86333054f2"><path d="M 34.335938 9.625 L 34.386719 9.675781 C 35.078125 10.367188 35.46875 11.308594 35.46875 12.292969 C 35.46875 13.273438 35.078125 14.214844 34.386719 14.90625 L 21.410156 27.882812 C 20.71875 28.574219 19.777344 28.964844 18.796875 28.964844 C 17.8125 28.964844 16.871094 28.574219 16.179688 27.882812 L 16.128906 27.832031 C 15.4375 27.140625 15.046875 26.199219 15.046875 25.214844 C 15.046875 24.234375 15.4375 23.292969 16.128906 22.601562 L 29.105469 9.625 C 29.796875 8.933594 30.738281 8.542969 31.71875 8.542969 C 32.703125 8.542969 33.644531 8.933594 34.335938 9.625 Z M 34.335938 9.625 " clip-rule="nonzero"/></clipPath><clipPath id="8db4de01cd"><path d="M 0 0.527344 L 20.527344 0.527344 L 20.527344 21 L 0 21 Z M 0 0.527344 " clip-rule="nonzero"/></clipPath><clipPath id="eb776163a5"><path d="M 16.71875 -0.992188 L 22.003906 4.292969 L 3.78125 22.511719 L -1.5 17.230469 Z M 16.71875 -0.992188 " clip-rule="nonzero"/></clipPath><clipPath id="ace2d780c5"><path d="M 19.335938 1.625 L 19.386719 1.675781 C 20.078125 2.367188 20.46875 3.308594 20.46875 4.292969 C 20.46875 5.273438 20.078125 6.214844 19.386719 6.90625 L 6.410156 19.882812 C 5.71875 20.574219 4.777344 20.964844 3.796875 20.964844 C 2.8125 20.964844 1.871094 20.574219 1.179688 19.882812 L 1.128906 19.832031 C 0.4375 19.140625 0.046875 18.199219 0.046875 17.214844 C 0.046875 16.234375 0.4375 15.292969 1.128906 14.601562 L 14.105469 1.625 C 14.796875 0.933594 15.738281 0.542969 16.71875 0.542969 C 17.703125 0.542969 18.644531 0.933594 19.335938 1.625 Z M 19.335938 1.625 " clip-rule="nonzero"/></clipPath><clipPath id="03bece0ad8"><rect x="0" width="21" y="0" height="21"/></clipPath><clipPath id="da09824eb6"><path d="M 27 21 L 36 21 L 36 29 L 27 29 Z M 27 21 " clip-rule="nonzero"/></clipPath><clipPath id="c33e9d1d70"><path d="M 31.722656 19.933594 L 37.003906 25.214844 L 31.699219 30.519531 L 26.417969 25.234375 Z M 31.722656 19.933594 " clip-rule="nonzero"/></clipPath><clipPath id="1d6e3a4fd9"><path d="M 34.339844 22.550781 L 34.386719 22.597656 C 35.082031 23.292969 35.472656 24.234375 35.472656 25.214844 C 35.472656 26.195312 35.082031 27.136719 34.386719 27.832031 L 34.335938 27.882812 C 33.640625 28.578125 32.699219 28.964844 31.71875 28.964844 C 30.738281 28.964844 29.796875 28.578125 29.101562 27.882812 L 29.054688 27.832031 C 28.359375 27.140625 27.96875 26.199219 27.96875 25.21875 C 27.96875 24.234375 28.359375 23.292969 29.054688 22.601562 L 29.105469 22.550781 C 29.796875 21.855469 30.738281 21.464844 31.722656 21.464844 C 32.703125 21.464844 33.644531 21.855469 34.339844 22.550781 Z M 34.339844 22.550781 " clip-rule="nonzero"/></clipPath><clipPath id="fe1a899fbf"><path d="M 0.949219 0.316406 L 8.527344 0.316406 L 8.527344 8 L 0.949219 8 Z M 0.949219 0.316406 " clip-rule="nonzero"/></clipPath><clipPath id="cfbab78ef5"><path d="M 4.722656 -1.066406 L 10.003906 4.214844 L 4.699219 9.519531 L -0.582031 4.234375 Z M 4.722656 -1.066406 " clip-rule="nonzero"/></clipPath><clipPath id="af93b8084c"><path d="M 7.339844 1.550781 L 7.386719 1.597656 C 8.082031 2.292969 8.472656 3.234375 8.472656 4.214844 C 8.472656 5.195312 8.082031 6.136719 7.386719 6.832031 L 7.335938 6.882812 C 6.640625 7.578125 5.699219 7.964844 4.71875 7.964844 C 3.738281 7.964844 2.796875 7.578125 2.101562 6.882812 L 2.054688 6.832031 C 1.359375 6.140625 0.96875 5.199219 0.96875 4.21875 C 0.96875 3.234375 1.359375 2.292969 2.054688 1.601562 L 2.105469 1.550781 C 2.796875 0.855469 3.738281 0.464844 4.722656 0.464844 C 5.703125 0.464844 6.644531 0.855469 7.339844 1.550781 Z M 7.339844 1.550781 " clip-rule="nonzero"/></clipPath><clipPath id="39e7a792ce"><rect x="0" width="9" y="0" height="8"/></clipPath><clipPath id="9789c1fda3"><path d="M 1 8 L 23 8 L 23 29 L 1 29 Z M 1 8 " clip-rule="nonzero"/></clipPath><clipPath id="fdbde6eda3"><path d="M 18.699219 6.515625 L 23.984375 11.796875 L 5.265625 30.511719 L -0.015625 25.230469 Z M 18.699219 6.515625 " clip-rule="nonzero"/></clipPath><clipPath id="e31fd5bacc"><path d="M 21.316406 9.132812 L 21.367188 9.179688 C 22.058594 9.875 22.449219 10.816406 22.449219 11.796875 C 22.449219 12.777344 22.058594 13.71875 21.367188 14.414062 L 7.898438 27.882812 C 7.203125 28.578125 6.261719 28.964844 5.28125 28.964844 C 4.300781 28.964844 3.359375 28.578125 2.664062 27.882812 L 2.613281 27.832031 C 1.921875 27.140625 1.53125 26.199219 1.53125 25.21875 C 1.53125 24.234375 1.921875 23.292969 2.613281 22.601562 L 16.082031 9.132812 C 16.777344 8.4375 17.71875 8.046875 18.699219 8.046875 C 19.683594 8.046875 20.625 8.4375 21.316406 9.132812 Z M 21.316406 9.132812 " clip-rule="nonzero"/></clipPath><clipPath id="dbb1015a58"><path d="M 0.421875 0 L 21.5 0 L 21.5 21 L 0.421875 21 Z M 0.421875 0 " clip-rule="nonzero"/></clipPath><clipPath id="6e6d63481e"><path d="M 17.699219 -1.484375 L 22.984375 3.796875 L 4.265625 22.511719 L -1.015625 17.230469 Z M 17.699219 -1.484375 " clip-rule="nonzero"/></clipPath><clipPath id="e2b009b0d4"><path d="M 20.316406 1.132812 L 20.367188 1.179688 C 21.058594 1.875 21.449219 2.816406 21.449219 3.796875 C 21.449219 4.777344 21.058594 5.71875 20.367188 6.414062 L 6.898438 19.882812 C 6.203125 20.578125 5.261719 20.964844 4.28125 20.964844 C 3.300781 20.964844 2.359375 20.578125 1.664062 19.882812 L 1.613281 19.832031 C 0.921875 19.140625 0.53125 18.199219 0.53125 17.21875 C 0.53125 16.234375 0.921875 15.292969 1.613281 14.601562 L 15.082031 1.132812 C 15.777344 0.4375 16.71875 0.046875 17.699219 0.046875 C 18.683594 0.046875 19.625 0.4375 20.316406 1.132812 Z M 20.316406 1.132812 " clip-rule="nonzero"/></clipPath><clipPath id="f5b5b4a0c1"><rect x="0" width="22" y="0" height="21"/></clipPath></defs><g mask="url(#8499c6a26c)"><g transform="matrix(1, 0, 0, 1, 14, 8)"><g clip-path="url(#e2771cf2f2)"><g clip-path="url(#62821aca45)"><g clip-path="url(#852e390db5)"><g><g clip-path="url(#fd6d8ad8be)"><g clip-path="url(#6918bcf345)"><g clip-path="url(#3a2035f55d)"><path fill="#f49f0b" d="M 0.96875 0.296875 L 8.4375 0.296875 L 8.4375 20.519531 L 0.96875 20.519531 Z M 0.96875 0.296875 " fill-opacity="1" fill-rule="nonzero"/></g></g></g></g></g></g></g></g></g><g mask="url(#8d5a426b14)"><g transform="matrix(1, 0, 0, 1, 27, 8)"><g clip-path="url(#1699ff462d)"><g clip-path="url(#8b221a94b0)"><g clip-path="url(#6b3443656d)"><g transform="matrix(1, 0, 0, 1, -0.000000000000003553, 0)"><g clip-path="url(#4b59764d35)"><g clip-path="url(#af4d07fc98)"><g clip-path="url(#3dd3f49e12)"><path fill="#f49f0b" d="M 0.945312 0.59375 L 8.417969 0.59375 L 8.417969 20.523438 L 0.945312 20.523438 Z M 0.945312 0.59375 " fill-opacity="1" fill-rule="nonzero"/></g></g></g></g></g></g></g></g></g><g clip-path="url(#b4b575b467)"><g clip-path="url(#0348579eb8)"><g clip-path="url(#86333054f2)"><g transform="matrix(1, 0, 0, 1, 15, 8)"><g clip-path="url(#03bece0ad8)"><g clip-path="url(#8db4de01cd)"><g clip-path="url(#eb776163a5)"><g clip-path="url(#ace2d780c5)"><path fill="#f49f0b" d="M 16.71875 -0.992188 L 22.003906 4.292969 L 3.804688 22.492188 L -1.480469 17.207031 Z M 16.71875 -0.992188 " fill-opacity="1" fill-rule="nonzero"/></g></g></g></g></g></g></g></g><g clip-path="url(#da09824eb6)"><g clip-path="url(#c33e9d1d70)"><g clip-path="url(#1d6e3a4fd9)"><g transform="matrix(1, 0, 0, 1, 27, 21)"><g clip-path="url(#39e7a792ce)"><g clip-path="url(#fe1a899fbf)"><g clip-path="url(#cfbab78ef5)"><g clip-path="url(#af93b8084c)"><path fill="#f49f0b" d="M 4.722656 -1.066406 L 10.003906 4.214844 L 4.722656 9.496094 L -0.5625 4.214844 Z M 4.722656 -1.066406 " fill-opacity="1" fill-rule="nonzero"/></g></g></g></g></g></g></g></g><g clip-path="url(#9789c1fda3)"><g clip-path="url(#fdbde6eda3)"><g clip-path="url(#e31fd5bacc)"><g transform="matrix(1, 0, 0, 1, 1, 8)"><g clip-path="url(#f5b5b4a0c1)"><g clip-path="url(#dbb1015a58)"><g clip-path="url(#6e6d63481e)"><g clip-path="url(#e2b009b0d4)"><path fill="#f49f0b" d="M 17.699219 -1.484375 L 22.984375 3.796875 L 4.289062 22.492188 L -0.996094 17.210938 Z M 17.699219 -1.484375 " fill-opacity="1" fill-rule="nonzero"/></g></g></g></g></g></g></g></g></svg>